<svg width="62" height="62" viewBox="0 0 62 62" fill="none" xmlns="http://www.w3.org/2000/svg">
<rect width="61.6221" height="61.6221" rx="14.4022" fill="#E4CE85" fill-opacity="0.5"/>
<path d="M47.4844 24.7315C47.1257 23.9121 46.6102 23.1708 45.9669 22.5493C45.3172 21.9203 44.5533 21.4212 43.7162 21.079C42.8415 20.7208 41.9051 20.5375 40.9599 20.5394C40.004 20.5394 39.0761 20.7209 38.2036 21.079C37.3662 21.4208 36.6022 21.9199 35.9529 22.5493C35.3089 23.1702 34.7933 23.9116 34.4354 24.7315C34.0665 25.5739 33.8765 26.4837 33.8777 27.4033V40.1731C33.8777 42.8768 31.61 45.0765 28.8208 45.0765C26.0321 45.0765 23.7627 42.8763 23.7627 40.1731V34.2892H25.3608C25.697 34.2892 25.9685 34.0265 25.9685 33.7008V31.5225C27.7168 30.4756 28.8816 28.6005 28.8816 26.4623V23.99H29.7618C30.0964 23.99 30.3684 23.7273 30.3684 23.4016V21.107C30.3684 20.835 30.1786 20.6058 29.9209 20.5389H26.3633V14.7218C26.365 14.3972 26.0929 14.1334 25.7573 14.1334H24.9484C24.6122 14.1334 24.3413 14.3972 24.3413 14.7218V20.5389H21.1649V14.7218C21.1649 14.3972 20.8929 14.1334 20.5578 14.1334H19.7484C19.4138 14.1334 19.1418 14.3972 19.1418 14.7218V20.5389H15.5848C15.4576 20.5706 15.3446 20.6437 15.2634 20.7466C15.1823 20.8496 15.1375 20.9765 15.1362 21.1076V23.4016C15.1362 23.7273 15.4082 23.99 15.7422 23.99H16.6229V26.4623C16.6229 28.6011 17.7867 30.475 19.5361 31.5225V33.7008C19.5361 34.0265 19.807 34.2892 20.1421 34.2892H21.7407V40.1731C21.7407 41.1 21.9288 41.9988 22.2974 42.8456C22.6556 43.6652 23.1712 44.4066 23.8148 45.0277C24.4642 45.6574 25.2282 46.1568 26.0655 46.4991C26.9386 46.8572 27.8671 47.0382 28.8219 47.0382C29.7766 47.0382 30.7062 46.8572 31.5782 46.4991C32.4156 46.1573 33.1795 45.6578 33.8283 45.0277C34.4731 44.4074 34.989 43.6658 35.3463 42.8456C35.7152 42.003 35.9049 41.0929 35.9035 40.1731V27.4033C35.9035 24.7002 38.1712 22.5 40.961 22.5C43.7497 22.5 46.019 24.7008 46.019 27.4033V47.0382H48.041V27.4033C48.041 26.4776 47.8529 25.5777 47.4844 24.7315Z" fill="#A7882D"/>
</svg>
