<svg width="23" height="23" viewBox="0 0 23 23" fill="none" xmlns="http://www.w3.org/2000/svg">
<g clip-path="url(#clip0_1_878)">
<path d="M19.32 6.55491C16.56 2.29991 10.925 1.03491 6.55499 3.67991C2.29999 6.32491 0.919991 12.0749 3.67999 16.3299L3.90999 16.6749L2.98999 20.1249L6.43999 19.2049L6.78499 19.4349C8.27999 20.2399 9.88999 20.6999 11.5 20.6999C13.225 20.6999 14.95 20.2399 16.445 19.3199C20.7 16.5599 21.965 10.9249 19.32 6.55491ZM16.905 15.4099C16.445 16.0999 15.87 16.5599 15.065 16.6749C14.605 16.6749 14.03 16.9049 11.73 15.9849C9.77499 15.0649 8.16499 13.5699 7.01499 11.8449C6.32499 11.0399 5.97999 10.0049 5.86499 8.96991C5.86499 8.04991 6.20999 7.24491 6.78499 6.66991C7.01499 6.43991 7.24499 6.32491 7.47499 6.32491H8.04999C8.27999 6.32491 8.50999 6.32491 8.62499 6.78491C8.85499 7.35991 9.42999 8.73991 9.42999 8.85491C9.54499 8.96991 9.54499 9.19991 9.42999 9.31491C9.54499 9.54491 9.42999 9.77491 9.31499 9.88991C9.19999 10.0049 9.08499 10.2349 8.96999 10.3499C8.73999 10.4649 8.62499 10.6949 8.73999 10.9249C9.19999 11.6149 9.77499 12.3049 10.35 12.8799C11.04 13.4549 11.73 13.9149 12.535 14.2599C12.765 14.3749 12.995 14.3749 13.11 14.1449C13.225 13.9149 13.8 13.3399 14.03 13.1099C14.26 12.8799 14.375 12.8799 14.605 12.9949L16.445 13.9149C16.675 14.0299 16.905 14.1449 17.02 14.2599C17.135 14.6049 17.135 15.0649 16.905 15.4099Z" fill="white"/>
</g>
<defs>
<clipPath id="clip0_1_878">
<rect width="23" height="23" fill="white"/>
</clipPath>
</defs>
</svg>
