<svg width="62" height="62" viewBox="0 0 62 62" fill="none" xmlns="http://www.w3.org/2000/svg">
<rect width="62" height="62" rx="14.4022" fill="#E4CE85" fill-opacity="0.5"/>
<path fill-rule="evenodd" clip-rule="evenodd" d="M14.4838 24.6263C13.5781 24.3444 11.5969 23.9241 9.9919 24.9694C8.74919 25.7785 7.62839 27.5056 7.62491 31.093H6.77408C6.29337 31.093 5.90323 31.4734 5.90323 31.9421V46.3767C5.90323 46.8454 6.29337 47.2258 6.77408 47.2258H8.5158C9.209 47.2258 9.87346 46.9575 10.3629 46.4794C10.8532 46.0022 11.1284 45.3544 11.1284 44.6785V41.7067H15.0472C15.8693 41.7067 16.6043 41.3356 17.0824 40.7557C17.1277 40.726 17.1704 40.6911 17.2104 40.6521L26.836 31.2671L42.3085 35.3096C42.7727 35.431 43.2499 35.1619 43.3744 34.7093L43.7445 33.3643L46.7725 34.1548C48.1667 34.5191 49.5993 33.7133 49.972 32.3539L50.9448 28.8166L54.5397 25.551C55.0047 25.1281 55.1989 24.4922 55.0448 23.891C54.8915 23.289 54.4151 22.8152 53.8003 22.6547L16.3579 12.8486C15.912 12.7314 15.4365 12.7925 15.0359 13.0175C14.6353 13.2425 14.3436 13.6136 14.2243 14.0483L12.0689 21.8888C11.9452 22.3423 12.2204 22.8076 12.6846 22.929L14.8295 23.4894L14.4838 24.6263ZM11.1284 38.3103V40.0085H12.5836C12.4869 39.7427 12.4346 39.4574 12.4346 39.1594C12.4346 38.8614 12.4869 38.5761 12.5836 38.3103H11.1284ZM15.0472 38.3103C15.5279 38.3103 15.9181 38.6907 15.9181 39.1594C15.9181 39.6281 15.5279 40.0085 15.0472 40.0085C14.5665 40.0085 14.1764 39.6281 14.1764 39.1594C14.1764 38.6907 14.5665 38.3103 15.0472 38.3103ZM13.9926 26.2421C13.4353 26.0392 12.0619 25.6639 10.9585 26.3822C9.99103 27.0123 9.33353 28.4226 9.36575 31.2314C9.73761 31.3562 10.0799 31.5626 10.3629 31.8394C10.8532 32.3165 11.1284 32.9644 11.1284 33.6403V36.6121H13.9647L21.0082 29.7446L14.3862 28.015C14.1598 27.9556 13.9665 27.8096 13.8515 27.61C13.7374 27.4096 13.7105 27.1736 13.7766 26.9537L13.9926 26.2421ZM16.512 23.9292L15.7004 26.6005L41.9175 33.4492L43.5495 27.5115L41.024 26.8518L38.8233 29.2717C38.6047 29.512 38.2651 29.6122 37.9464 29.529L16.512 23.9292ZM49.1012 28.9618L48.2904 31.9141C48.1659 32.3675 47.6878 32.6367 47.2236 32.5152L44.1948 31.7239L45.2319 27.9505L49.1012 28.9618ZM27.7225 20.1771C28.3356 20.3367 28.6996 20.9523 28.5359 21.5492C28.3713 22.147 27.7408 22.5019 27.1277 22.3423C26.5146 22.1818 26.1506 21.567 26.3152 20.9693C26.4789 20.3715 27.1094 20.0166 27.7225 20.1771ZM23.2812 19.0164C23.8942 19.1768 24.2583 19.7916 24.0937 20.3893C23.9299 20.9863 23.2986 21.342 22.6864 21.1816C22.0733 21.0219 21.7093 20.4063 21.873 19.8086C22.0376 19.2117 22.6681 18.8559 23.2812 19.0164ZM18.8398 17.8557C19.4529 18.0161 19.8169 18.6309 19.6523 19.2286C19.4886 19.8264 18.8572 20.1813 18.245 20.0217C17.6319 19.8612 17.2679 19.2465 17.4316 18.6487C17.5962 18.0509 18.2267 17.696 18.8398 17.8557Z" fill="#A7882D"/>
</svg>
