<svg width="35" height="35" viewBox="0 0 35 35" fill="none" xmlns="http://www.w3.org/2000/svg">
<path d="M32.8125 30.625H2.1875C1.85938 30.625 1.42188 30.4062 1.20313 30.0781C0.984375 29.75 0.984375 29.3125 1.20313 28.9844L3.39062 25.7031C3.60938 25.375 3.9375 25.1562 4.375 25.1562H30.625C31.0625 25.1562 31.3906 25.375 31.6094 25.8125L33.7969 29.0938C34.0156 29.4219 33.9063 29.8594 33.7969 30.1875C33.5781 30.4063 33.1406 30.625 32.8125 30.625Z" fill="#A7882D"/>
<path d="M29.5312 5.46875H5.46875C4.8125 5.46875 4.375 5.90625 4.375 6.5625V21.875C4.375 22.5312 4.8125 22.9688 5.46875 22.9688H29.5312C30.1875 22.9688 30.625 22.5312 30.625 21.875V6.5625C30.625 5.90625 30.1875 5.46875 29.5312 5.46875ZM12.7969 16.7344C13.2344 17.1719 13.2344 17.8281 12.7969 18.2656C12.5781 18.4844 12.3594 18.5938 12.0312 18.5938C11.7031 18.5938 11.4844 18.4844 11.2656 18.2656L7.98438 14.9844C7.54688 14.5469 7.54688 13.8906 7.98438 13.4531L11.2656 10.1719C11.7031 9.73438 12.3594 9.73438 12.7969 10.1719C13.2344 10.6094 13.2344 11.2656 12.7969 11.7031L10.2812 14.2188L12.7969 16.7344ZM20.6719 10.2812L16.2969 19.0312C16.0781 19.4688 15.75 19.6875 15.3125 19.6875C15.0938 19.6875 14.9844 19.6875 14.875 19.5781C14.3281 19.3594 14.1094 18.7031 14.4375 18.1562L18.8125 9.40625C19.0313 8.85938 19.6875 8.64062 20.2344 8.96875C20.6719 9.1875 20.8906 9.84375 20.6719 10.2812ZM27.0156 14.9844L23.7344 18.2656C23.5156 18.4844 23.2969 18.5938 22.9688 18.5938C22.6406 18.5938 22.4219 18.4844 22.2031 18.2656C21.7656 17.8281 21.7656 17.1719 22.2031 16.7344L24.7188 14.2188L22.2031 11.7031C21.7656 11.2656 21.7656 10.6094 22.2031 10.1719C22.6406 9.73438 23.2969 9.73438 23.7344 10.1719L27.0156 13.4531C27.4531 13.8906 27.4531 14.5469 27.0156 14.9844Z" fill="#A7882D"/>
</svg>
