<svg width="24" height="24" viewBox="0 0 24 24" fill="none" xmlns="http://www.w3.org/2000/svg">
<path d="M20.947 8.75662C20.9369 7.99924 20.7951 7.24939 20.528 6.54062C20.2964 5.94277 19.9425 5.39982 19.4892 4.94645C19.0358 4.49308 18.4929 4.13927 17.895 3.90762C17.1953 3.64497 16.4562 3.50296 15.709 3.48762C14.747 3.44462 14.442 3.43262 12 3.43262C9.55801 3.43262 9.24501 3.43262 8.29001 3.48762C7.54317 3.50307 6.80436 3.64509 6.10501 3.90762C5.50707 4.13911 4.96403 4.49286 4.51064 4.94625C4.05725 5.39964 3.7035 5.94268 3.47201 6.54062C3.20884 7.23975 3.06713 7.97873 3.05301 8.72562C3.01001 9.68862 2.99701 9.99362 2.99701 12.4356C2.99701 14.8776 2.99701 15.1896 3.05301 16.1456C3.06801 16.8936 3.20901 17.6316 3.47201 18.3326C3.70389 18.9304 4.05791 19.4732 4.51145 19.9264C4.96499 20.3796 5.50807 20.7332 6.10601 20.9646C6.80344 21.2378 7.54238 21.39 8.29101 21.4146C9.25401 21.4576 9.55901 21.4706 12.001 21.4706C14.443 21.4706 14.756 21.4706 15.711 21.4146C16.4582 21.3999 17.1974 21.2582 17.897 20.9956C18.4947 20.7637 19.0375 20.4098 19.4909 19.9565C19.9442 19.5031 20.2981 18.9603 20.53 18.3626C20.793 17.6626 20.934 16.9246 20.949 16.1756C20.992 15.2136 21.005 14.9086 21.005 12.4656C21.003 10.0236 21.003 9.71362 20.947 8.75662ZM11.994 17.0536C9.44001 17.0536 7.37101 14.9846 7.37101 12.4306C7.37101 9.87662 9.44001 7.80762 11.994 7.80762C13.2201 7.80762 14.396 8.29468 15.263 9.16166C16.1299 10.0286 16.617 11.2045 16.617 12.4306C16.617 13.6567 16.1299 14.8326 15.263 15.6996C14.396 16.5666 13.2201 17.0536 11.994 17.0536ZM16.801 8.71462C16.6594 8.71475 16.5192 8.68696 16.3883 8.63283C16.2575 8.5787 16.1386 8.4993 16.0385 8.39917C15.9383 8.29904 15.8589 8.18015 15.8048 8.04931C15.7507 7.91846 15.7229 7.77822 15.723 7.63662C15.723 7.49512 15.7509 7.355 15.805 7.22428C15.8592 7.09355 15.9385 6.97476 16.0386 6.87471C16.1387 6.77465 16.2574 6.69529 16.3882 6.64114C16.5189 6.58699 16.659 6.55912 16.8005 6.55912C16.942 6.55912 17.0821 6.58699 17.2129 6.64114C17.3436 6.69529 17.4624 6.77465 17.5624 6.87471C17.6625 6.97476 17.7418 7.09355 17.796 7.22428C17.8501 7.355 17.878 7.49512 17.878 7.63662C17.878 8.23262 17.396 8.71462 16.801 8.71462Z" fill="white"/>
<path d="M11.994 15.4337C13.6525 15.4337 14.997 14.0892 14.997 12.4307C14.997 10.7722 13.6525 9.42773 11.994 9.42773C10.3355 9.42773 8.99103 10.7722 8.99103 12.4307C8.99103 14.0892 10.3355 15.4337 11.994 15.4337Z" fill="white"/>
</svg>
