<svg width="24" height="24" viewBox="0 0 24 24" fill="none" xmlns="http://www.w3.org/2000/svg">
<path d="M22.8874 19.5406L22.8864 19.5397L17.4101 14.5606C17.3432 14.4997 17.2553 14.4673 17.1649 14.4701C17.0745 14.4729 16.9887 14.5107 16.9257 14.5755L16.9256 14.5756L13.7018 17.8911L13.3263 18.2772L12.7972 18.1762C11.8633 17.9978 10.1095 17.4339 8.33667 15.6656L8.33548 15.6644C6.56284 13.8903 5.99789 12.1315 5.82355 11.1995L5.72504 10.6729L6.10893 10.2991L9.42173 7.07394L9.42294 7.07276C9.48767 7.00996 9.52542 6.92445 9.5282 6.83431C9.53099 6.74418 9.4986 6.65649 9.43787 6.58981L9.43734 6.58922L4.45938 1.11419L4.45901 1.11378C4.39826 1.04689 4.31383 1.00632 4.22365 1.00068C4.13358 0.995046 4.04487 1.0247 3.97629 1.08335C3.97625 1.08338 3.97621 1.08342 3.97617 1.08345C3.97613 1.08349 3.97608 1.08353 3.97603 1.08357L1.09232 3.55664C1.04309 3.61419 1.01387 3.68648 1.00954 3.76257L1.00937 3.76563C0.993614 4.0281 0.62754 11.6283 6.49907 17.5025C6.49915 17.5026 6.49923 17.5027 6.49931 17.5028M22.8874 19.5406L20.2948 23.9892C20.2503 23.9919 20.0833 24 19.8112 24C17.9493 24 11.189 23.6053 5.79205 18.2097M22.8874 19.5406C22.9537 19.6007 22.9939 19.6844 22.9994 19.7738C23.0048 19.8632 22.9751 19.9512 22.9166 20.019L22.9142 20.0218L20.4406 22.909M22.8874 19.5406L20.4406 22.909M6.49931 17.5028L5.79205 18.2097M6.49931 17.5028C11.6165 22.6185 18.0471 23 19.8112 23C20.0649 23 20.2117 22.9924 20.2343 22.9911L20.2389 22.9908C20.3136 22.9866 20.3844 22.9577 20.4406 22.909M6.49931 17.5028L20.4406 22.909M5.79205 18.2097C-0.394354 12.0207 -0.00905065 4.04254 0.0111576 3.70574C0.0299102 3.37628 0.168931 3.06517 0.40185 2.83141L5.79205 18.2097Z" stroke="#15212E" stroke-width="2"/>
</svg>
