<svg width="125" height="125" viewBox="0 0 125 125" fill="none" xmlns="http://www.w3.org/2000/svg">
<path fill-rule="evenodd" clip-rule="evenodd" d="M62.5 125C97.0178 125 125 97.0177 125 62.5C125 27.9822 97.0178 0 62.5 0C27.9822 0 0 27.9822 0 62.5C0 97.0177 27.9822 125 62.5 125ZM62.5 115.741C91.904 115.741 115.741 91.904 115.741 62.5C115.741 33.0959 91.904 9.25927 62.5 9.25927C33.0959 9.25927 9.25923 33.0959 9.25923 62.5C9.25923 91.904 33.0959 115.741 62.5 115.741Z" fill="#8FC79A"/>
<path fill-rule="evenodd" clip-rule="evenodd" d="M93.8181 116.587C103.913 110.742 112.171 102.188 117.657 91.8929L109.495 87.5433C100.535 104.323 82.8507 115.741 62.5 115.741C33.096 115.741 9.25927 91.904 9.25927 62.5C9.25927 33.0959 33.096 9.25927 62.5 9.25927C66.6362 9.25927 70.6622 9.73093 74.5272 10.6234L76.6157 1.61489C65.2517 -1.01975 53.3772 -0.421417 42.3356 3.34219C31.294 7.1058 21.5261 13.8845 14.137 22.9112C6.74794 31.938 2.0326 42.8525 0.524516 54.42C-0.983573 65.9875 0.775785 77.7462 5.60354 88.3657C10.4313 98.9852 18.1347 108.042 27.8423 114.51C37.5498 120.979 48.874 124.602 60.5337 124.969C72.1933 125.336 83.7229 122.433 93.8181 116.587Z" fill="#F8E294"/>
<path fill-rule="evenodd" clip-rule="evenodd" d="M62.5 115.741C91.904 115.741 115.741 91.9039 115.741 62.4999C115.741 57.7333 115.114 53.113 113.939 48.7168L122.87 46.3237C126.431 59.6133 125.508 73.7065 120.242 86.4176C114.977 99.1287 105.665 109.747 93.75 116.626C81.8349 123.506 67.9828 126.261 54.3421 124.465C40.7014 122.669 28.0345 116.423 18.3058 106.694L24.8531 100.147C34.4878 109.781 47.7979 115.741 62.5 115.741Z" fill="#FF9B96"/>
</svg>
